<svg xmlns="http://www.w3.org/2000/svg"  viewBox="0 0 24 24" width="24px" height="24px" baseProfile="basic"><path fill="#1b1b1b" d="M17.54,10h-0.022l1.41-2.547c0.52-0.939,0.505-2.052-0.04-2.976	C18.343,3.552,17.377,3,16.303,3h-4.644c-1.202,0-2.284,0.714-2.757,1.818l-2.606,6.081C6.1,11.357,7,10.842,7,11.341	c0,2.001,1.615,3.632,3.609,3.659L9.192,19.34c-0.116,0.926,0.172,1.859,0.79,2.558c0.618,0.7,1.507,1.101,2.441,1.101	c0.952,0,1.853-0.414,2.472-1.137l5.273-6.151C20.704,15.085,21,14.285,21,13.46C21,11.552,19.448,10,17.54,10z" opacity=".25"/><path fill="#f6f6f6" d="M16.54,9h-0.022l1.41-2.547c0.52-0.939,0.505-2.052-0.04-2.976C17.343,2.552,16.377,2,15.303,2	h-4.644C9.458,2,8.375,2.714,7.902,3.818L5.296,9.899C5.1,10.357,5,10.842,5,11.341C5,13.342,6.615,14.973,8.609,15L8.192,18.34	c-0.116,0.926,0.172,1.859,0.79,2.558C9.599,21.599,10.489,22,11.422,22c0.952,0,1.853-0.414,2.472-1.137l5.273-6.151	C19.704,14.085,20,13.285,20,12.46C20,10.552,18.448,9,16.54,9z"/><path fill="#ffa62e" d="M16.54,11h-3.415l3.053-5.516C16.547,4.818,16.065,4,15.303,4h-4.644c-0.4,0-0.762,0.238-0.919,0.606	l-2.606,6.081C7.046,10.893,7,11.116,7,11.341v0C7,12.257,7.743,13,8.659,13h2.216l-0.699,5.589C10.083,19.338,10.667,20,11.422,20	h0c0.367,0,0.715-0.16,0.953-0.439l5.273-6.151C17.875,13.145,18,12.808,18,12.46v0C18,11.654,17.346,11,16.54,11z"/></svg>